<svg id="Chatbot_icon" data-name="Chatbot icon" xmlns="http://www.w3.org/2000/svg" width="59.291" height="59.291" viewBox="0 0 59.291 59.291">
  <g id="_ëîé_1" data-name="‘ëîé_1" transform="translate(0 0)">
    <circle id="Ellipse_78" data-name="Ellipse 78" cx="29.645" cy="29.645" r="29.645" transform="translate(0 0)" fill="#5187b6"/>
    <path id="Path_3916" data-name="Path 3916" d="M205.124,559.72a15.139,15.139,0,0,0-14.2,10.4,29.684,29.684,0,0,0,28.407,0A15.139,15.139,0,0,0,205.124,559.72Z" transform="translate(-175.478 -514.449)" fill="#fff"/>
    <path id="Path_3917" data-name="Path 3917" d="M238.313,541.48c-5.348,0-9.861,5.6-11.283,13.27a29.72,29.72,0,0,0,22.566,0C248.174,547.083,243.661,541.48,238.313,541.48Z" transform="translate(-208.668 -497.684)" fill="#e2e2e2"/>
    <ellipse id="Ellipse_79" data-name="Ellipse 79" cx="7.561" cy="2.897" rx="7.561" ry="2.897" transform="translate(22.085 42.313)" fill="#d1d3d4"/>
    <rect id="Rectangle_197" data-name="Rectangle 197" width="1.212" height="13.945" transform="translate(12.623 14.644)" fill="#eeeff1"/>
    <rect id="Rectangle_198" data-name="Rectangle 198" width="1.212" height="13.945" transform="translate(45.455 14.644)" fill="#eeeff1"/>
    <circle id="Ellipse_80" data-name="Ellipse 80" cx="4.875" cy="4.875" r="4.875" transform="translate(9.924 26.614)" fill="#e2e2e2"/>
    <circle id="Ellipse_81" data-name="Ellipse 81" cx="4.875" cy="4.875" r="4.875" transform="translate(38.909 27.446) rotate(-9.07)" fill="#e2e2e2"/>
    <path id="Path_3918" data-name="Path 3918" d="M184.409,219.534A16.173,16.173,0,0,0,168.68,235.8v6.823A4.379,4.379,0,0,0,173.059,247h23.247a4.379,4.379,0,0,0,4.379-4.379v-7.086A16,16,0,0,0,184.409,219.534Z" transform="translate(-155.037 -201.776)" fill="#d1d3d4"/>
    <path id="Path_3919" data-name="Path 3919" d="M184.409,198.314a16.173,16.173,0,0,0-15.729,16.264V222.5a3.277,3.277,0,0,0,3.276,3.277h25.452a3.277,3.277,0,0,0,3.277-3.277v-8.186A16,16,0,0,0,184.409,198.314Z" transform="translate(-155.037 -182.272)" fill="#eeeff1"/>
    <path id="Path_3920" data-name="Path 3920" d="M224.947,234.609A12.651,12.651,0,0,0,212.72,247.4v6.228a2.561,2.561,0,0,0,2.547,2.576h19.787a2.561,2.561,0,0,0,2.547-2.576v-6.435A12.509,12.509,0,0,0,224.947,234.609Z" transform="translate(-195.514 -215.632)" fill="#d1d3d4"/>
    <path id="Path_3921" data-name="Path 3921" d="M224.947,247.439a12.651,12.651,0,0,0-12.228,12.787v5.191a2.561,2.561,0,0,0,2.547,2.576h19.787a2.561,2.561,0,0,0,2.547-2.576v-5.4A12.508,12.508,0,0,0,224.947,247.439Z" transform="translate(-195.514 -227.425)" fill="#001f49"/>
    <circle id="Ellipse_82" data-name="Ellipse 82" cx="1.49" cy="1.49" r="1.49" transform="translate(22.374 27.941) rotate(-13.18)" fill="#f8f5f1"/>
    <circle id="Ellipse_83" data-name="Ellipse 83" cx="1.49" cy="1.49" r="1.49" transform="translate(33.1 29.625) rotate(-60.71)" fill="#f8f5f1"/>
    <path id="Path_3922" data-name="Path 3922" d="M324.282,405.37H317a.4.4,0,0,0-.4.446,4.063,4.063,0,0,0,8.078,0,.4.4,0,0,0-.4-.446Z" transform="translate(-290.996 -372.583)" fill="#f8f5f1"/>
    <circle id="Ellipse_84" data-name="Ellipse 84" cx="1.72" cy="1.72" r="1.72" transform="matrix(0.987, -0.161, 0.161, 0.987, 11.255, 12.385)" fill="#d1d3d4"/>
    <circle id="Ellipse_85" data-name="Ellipse 85" cx="1.72" cy="1.72" r="1.72" transform="translate(43.811 14.728) rotate(-67.24)" fill="#d1d3d4"/>
  </g>
</svg>
